# xmcd
#
# Track frame offsets: 
#        150
#        13804
#        31829
#        47879
#        63790
#        78526
#        92502
#        108692
#        123898
#        138782
#        153010
#        167056
#        184110
#
# Disc length: 2662 seconds
#
# Revision: 0
# Processed by: cddbd v1.5.2PL0 Copyright (c) Steve Scherf et al.
# Submitted via: ExactAudioCopy v0.99pb3
#
DISCID=9b0a640d
DTITLE=Steff Nevers - Ain't No Bad Life
DYEAR=2011
DGENRE=Country
TTITLE0=300 Horses
TTITLE1=Fightin' The Foll
TTITLE2=Ain't No Bad Life
TTITLE3=Hard On A Heart
TTITLE4=Hillbilly Shoes
TTITLE5=Everyday Thing
TTITLE6=Simple Country Life
TTITLE7=Big Dreams
TTITLE8=Baby's Got Her Boots On
TTITLE9=White Wine
TTITLE10=You Can Count On Me
TTITLE11=Too Long (The Truckers Song)
TTITLE12=Heart Of Stone
EXTD=
EXTT0=
EXTT1=
EXTT2=
EXTT3=
EXTT4=
EXTT5=
EXTT6=
EXTT7=
EXTT8=
EXTT9=
EXTT10=
EXTT11=
EXTT12=
PLAYORDER=
